<svg id="mermaidChart573" width="100%" xmlns="http://www.w3.org/2000/svg" height="100%" style="max-width:850px;" viewBox="-50 -10 850 921"><style type="text/css" title="mermaid-svg-internal-css">/*  */
*, ::before, ::after { box-sizing: inherit;}
.actor { stroke: rgb(204, 204, 255); fill: rgb(226, 236, 255);}
text.actor { fill: black; stroke: none; font-size: 12px;}
.actor-line { stroke: grey;}
.messageLine0 { stroke-width: 1.5; stroke: black;}
.messageLine1 { stroke-width: 1.5; stroke: black;}
#arrowhead { fill: black;}
.messageText { fill: black; stroke: none; font-size: 12px;}
.labelBox { stroke: rgb(204, 204, 255); fill: rgb(236, 236, 255);}
.labelText { fill: black; stroke: none;}
.loopText { fill: black; stroke: none;}
.loopLine { stroke-width: 2; stroke: rgb(204, 204, 255);}
.actor { stroke: rgb(204, 204, 255); fill: rgb(236, 236, 255);}
text.actor { fill: black; stroke: none;}
.actor-line { stroke: grey;}
.messageLine0 { stroke-width: 1.5; stroke: rgb(51, 51, 51);}
.messageLine1 { stroke-width: 1.5; stroke: rgb(51, 51, 51);}
#arrowhead { fill: rgb(51, 51, 51);}
#crosshead path { fill: rgb(51, 51, 51) !important; stroke: rgb(51, 51, 51) !important;}
.messageText { fill: rgb(51, 51, 51); stroke: none;}
.labelBox { stroke: rgb(204, 204, 255); fill: rgb(236, 236, 255);}
.labelText { fill: black; stroke: none;}
.loopText { fill: black; stroke: none;}
.loopLine { stroke-width: 2; stroke: rgb(204, 204, 255);}
text { font-family: "trebuchet ms", verdana, arial; font-size: 14px;}
/*  */
</style><g></g><g><line id="actor2455" x1="75" y1="5" x2="75" y2="910" class="actor-line" stroke-width="0.5px" stroke="#999"></line><rect x="0" y="0" fill="#eaeaea" stroke="#666" width="150" height="65" rx="3" ry="3" class="actor"></rect><text x="75" y="37.5" class="actor" style="text-anchor: middle;">User</text></g><g><line id="actor2456" x1="275" y1="5" x2="275" y2="910" class="actor-line" stroke-width="0.5px" stroke="#999"></line><rect x="200" y="0" fill="#eaeaea" stroke="#666" width="150" height="65" rx="3" ry="3" class="actor"></rect><text x="275" y="37.5" class="actor" style="text-anchor: middle;">mmt_smp_security</text></g><g><line id="actor2457" x1="475" y1="5" x2="475" y2="910" class="actor-line" stroke-width="0.5px" stroke="#999"></line><rect x="400" y="0" fill="#eaeaea" stroke="#666" width="150" height="65" rx="3" ry="3" class="actor"></rect><text x="475" y="37.5" class="actor" style="text-anchor: middle;">mmt_single_security</text></g><g><line id="actor2458" x1="675" y1="5" x2="675" y2="910" class="actor-line" stroke-width="0.5px" stroke="#999"></line><rect x="600" y="0" fill="#eaeaea" stroke="#666" width="150" height="65" rx="3" ry="3" class="actor"></rect><text x="675" y="37.5" class="actor" style="text-anchor: middle;">rule_verif_engine</text></g><defs><marker id="arrowhead" refX="5" refY="2" markerWidth="6" markerHeight="4" orient="auto"><path d="M 0,0 V 4 L6,2 Z"></path></marker></defs><defs><marker id="crosshead" markerWidth="15" markerHeight="8" orient="auto" refX="16" refY="4"><path fill="black" stroke="#000000" stroke-width="1px" d="M 9,2 V 6 L16,4 Z" style="stroke-dasharray: 0, 0;"></path><path fill="none" stroke="#000000" stroke-width="1px" d="M 0,1 L 6,7 M 6,1 L 0,7" style="stroke-dasharray: 0, 0;"></path></marker></defs><g><text x="175" y="93" class="messageText" style="text-anchor: middle;">mmt_smp_sec_register()</text><line x1="75" y1="100" x2="275" y2="100" class="messageLine0" stroke-width="2" stroke="black" marker-end="url(#arrowhead)" style="fill: none;"></line></g><g><rect x="270" y="102" fill="#f4f4f4" stroke="#666" width="10" height="723" rx="0" ry="0"></rect></g><g><text x="377.5" y="153" class="messageText" style="text-anchor: middle;">mmt_single_sec_register</text><line x1="280" y1="160" x2="475" y2="160" class="messageLine0" stroke-width="2" stroke="black" marker-end="url(#arrowhead)" style="fill: none;"></line></g><g><rect x="470" y="162" fill="#f4f4f4" stroke="#666" width="10" height="618" rx="0" ry="0"></rect></g><g><text x="577.5" y="188" class="messageText" style="text-anchor: middle;">rule_engine_init</text><line x1="480" y1="195" x2="675" y2="195" class="messageLine0" stroke-width="2" stroke="black" marker-end="url(#arrowhead)" style="fill: none;"></line></g><g><rect x="670" y="197" fill="#f4f4f4" stroke="#666" width="10" height="548" rx="0" ry="0"></rect></g><g><line x1="260" y1="110" x2="685" y2="110" stroke-width="2" stroke="#526e52" class="loopLine"></line><line x1="685" y1="110" x2="685" y2="205" stroke-width="2" stroke="#526e52" class="loopLine"></line><line x1="260" y1="205" x2="685" y2="205" stroke-width="2" stroke="#526e52" class="loopLine"></line><line x1="260" y1="110" x2="260" y2="205" stroke-width="2" stroke="#526e52" class="loopLine"></line><rect x="260" y="110" fill="#526e52" stroke="none" width="50" height="20" rx="0" ry="0" class="labelBox"></rect><text x="267.5" y="125" fill="white" class="labelText"><tspan x="267.5">loop</tspan></text><text x="472.5" y="125" fill="black" class="loopText" style="text-anchor: middle;"><tspan x="472.5">[ for each thread ]</tspan></text></g><g><text x="172.5" y="233" class="messageText" style="text-anchor: middle;">mmt_smp_sec_process (message)</text><line x1="75" y1="240" x2="270" y2="240" class="messageLine0" stroke-width="2" stroke="black" marker-end="url(#arrowhead)" style="fill: none;"></line></g><g><text x="280" y="268" class="messageText" style="text-anchor: middle;">ring_push( message )</text><path d="M 280,275 C 340,265 340,305 280,295" class="messageLine0" stroke-width="2" stroke="black" marker-end="url(#arrowhead)" style="fill: none;"></path></g><g><text x="375" y="358" class="messageText" style="text-anchor: middle;">ring_pop_burst( messages )</text><line x1="470" y1="365" x2="280" y2="365" class="messageLine0" stroke-width="2" stroke="black" marker-end="url(#arrowhead)" style="fill: none;"></line></g><g><text x="375" y="418" class="messageText" style="text-anchor: middle;">mmt_single_sec_process( m )</text><line x1="280" y1="425" x2="470" y2="425" class="messageLine0" stroke-width="2" stroke="black" marker-end="url(#arrowhead)" style="fill: none;"></line></g><g><text x="575" y="453" class="messageText" style="text-anchor: middle;">rule_engine_process( m )</text><line x1="480" y1="460" x2="670" y2="460" class="messageLine0" stroke-width="2" stroke="black" marker-end="url(#arrowhead)" style="fill: none;"></line></g><g><text x="575" y="488" class="messageText" style="text-anchor: middle;">verdict</text><line x1="670" y1="495" x2="480" y2="495" class="messageLine1" stroke-width="2" stroke="black" marker-end="url(#arrowhead)" style="stroke-dasharray: 3, 3; fill: none;"></line></g><g><text x="480" y="548" class="messageText" style="text-anchor: middle;">callback( verdict )</text><path d="M 480,555 C 540,545 540,585 480,575" class="messageLine0" stroke-width="2" stroke="black" marker-end="url(#arrowhead)" style="fill: none;"></path></g><g><line x1="370" y1="505" x2="590" y2="505" stroke-width="2" stroke="#526e52" class="loopLine"></line><line x1="590" y1="505" x2="590" y2="595" stroke-width="2" stroke="#526e52" class="loopLine"></line><line x1="370" y1="595" x2="590" y2="595" stroke-width="2" stroke="#526e52" class="loopLine"></line><line x1="370" y1="505" x2="370" y2="595" stroke-width="2" stroke="#526e52" class="loopLine"></line><rect x="370" y="505" fill="#526e52" stroke="none" width="50" height="20" rx="0" ry="0" class="labelBox"></rect><text x="377.5" y="520" fill="white" class="labelText"><tspan x="377.5">opt</tspan></text><text x="480" y="520" fill="black" class="loopText" style="text-anchor: middle;"><tspan x="480">[ verdict != unknown ]</tspan></text></g><g><line x1="260" y1="375" x2="690" y2="375" stroke-width="2" stroke="#526e52" class="loopLine"></line><line x1="690" y1="375" x2="690" y2="605" stroke-width="2" stroke="#526e52" class="loopLine"></line><line x1="260" y1="605" x2="690" y2="605" stroke-width="2" stroke="#526e52" class="loopLine"></line><line x1="260" y1="375" x2="260" y2="605" stroke-width="2" stroke="#526e52" class="loopLine"></line><rect x="260" y="375" fill="#526e52" stroke="none" width="50" height="20" rx="0" ry="0" class="labelBox"></rect><text x="267.5" y="390" fill="white" class="labelText"><tspan x="267.5">loop</tspan></text><text x="475" y="390" fill="black" class="loopText" style="text-anchor: middle;"><tspan x="475">[ for each m in messages ]</tspan></text></g><g><line x1="250" y1="315" x2="700" y2="315" stroke-width="2" stroke="#526e52" class="loopLine"></line><line x1="700" y1="315" x2="700" y2="615" stroke-width="2" stroke="#526e52" class="loopLine"></line><line x1="250" y1="615" x2="700" y2="615" stroke-width="2" stroke="#526e52" class="loopLine"></line><line x1="250" y1="315" x2="250" y2="615" stroke-width="2" stroke="#526e52" class="loopLine"></line><rect x="250" y="315" fill="#526e52" stroke="none" width="50" height="20" rx="0" ry="0" class="labelBox"></rect><text x="257.5" y="330" fill="white" class="labelText"><tspan x="257.5">loop</tspan></text><text x="475" y="330" fill="black" class="loopText" style="text-anchor: middle;"><tspan x="475">[ forever ]</tspan></text></g><g><text x="172.5" y="643" class="messageText" style="text-anchor: middle;">mmt_smp_sec_unregister</text><line x1="75" y1="650" x2="270" y2="650" class="messageLine0" stroke-width="2" stroke="black" marker-end="url(#arrowhead)" style="fill: none;"></line></g><g><text x="375" y="703" class="messageText" style="text-anchor: middle;">mmt_single_sec_unregister</text><line x1="280" y1="710" x2="470" y2="710" class="messageLine0" stroke-width="2" stroke="black" marker-end="url(#arrowhead)" style="fill: none;"></line></g><g><text x="575" y="738" class="messageText" style="text-anchor: middle;">rule_engine_free</text><line x1="480" y1="745" x2="670" y2="745" class="messageLine0" stroke-width="2" stroke="black" marker-end="url(#arrowhead)" style="fill: none;"></line></g><g><text x="375" y="773" class="messageText" style="text-anchor: middle;">alerts_count of each rule</text><line x1="470" y1="780" x2="280" y2="780" class="messageLine1" stroke-width="2" stroke="black" marker-end="url(#arrowhead)" style="stroke-dasharray: 3, 3; fill: none;"></line></g><g><line x1="260" y1="660" x2="690" y2="660" stroke-width="2" stroke="#526e52" class="loopLine"></line><line x1="690" y1="660" x2="690" y2="790" stroke-width="2" stroke="#526e52" class="loopLine"></line><line x1="260" y1="790" x2="690" y2="790" stroke-width="2" stroke="#526e52" class="loopLine"></line><line x1="260" y1="660" x2="260" y2="790" stroke-width="2" stroke="#526e52" class="loopLine"></line><rect x="260" y="660" fill="#526e52" stroke="none" width="50" height="20" rx="0" ry="0" class="labelBox"></rect><text x="267.5" y="675" fill="white" class="labelText"><tspan x="267.5">loop</tspan></text><text x="475" y="675" fill="black" class="loopText" style="text-anchor: middle;"><tspan x="475">[ for each thread ]</tspan></text></g><g><text x="172.5" y="818" class="messageText" style="text-anchor: middle;">alerts_count</text><line x1="270" y1="825" x2="75" y2="825" class="messageLine1" stroke-width="2" stroke="black" marker-end="url(#arrowhead)" style="stroke-dasharray: 3, 3; fill: none;"></line></g><g><rect x="0" y="845" fill="#eaeaea" stroke="#666" width="150" height="65" rx="3" ry="3" class="actor"></rect><text x="75" y="882.5" class="actor" style="text-anchor: middle;">User</text></g><g><rect x="200" y="845" fill="#eaeaea" stroke="#666" width="150" height="65" rx="3" ry="3" class="actor"></rect><text x="275" y="882.5" class="actor" style="text-anchor: middle;">mmt_smp_security</text></g><g><rect x="400" y="845" fill="#eaeaea" stroke="#666" width="150" height="65" rx="3" ry="3" class="actor"></rect><text x="475" y="882.5" class="actor" style="text-anchor: middle;">mmt_single_security</text></g><g><rect x="600" y="845" fill="#eaeaea" stroke="#666" width="150" height="65" rx="3" ry="3" class="actor"></rect><text x="675" y="882.5" class="actor" style="text-anchor: middle;">rule_verif_engine</text></g></svg>